<?xml version="1.0" encoding="utf-8"?>
<!-- Generator: Adobe Illustrator 19.0.0, SVG Export Plug-In . SVG Version: 6.00 Build 0)  -->
<svg version="1.1" id="layer" xmlns="http://www.w3.org/2000/svg" xmlns:xlink="http://www.w3.org/1999/xlink" x="0px" y="0px"
	 viewBox="-153 -46 652 652" style="enable-background:new -153 -46 652 652;" xml:space="preserve">
<path d="M340.5,193.1h-37.4c-4,0-7.2,3.2-7.2,7.2v160.1c0,4,3.2,7.2,7.2,7.2h37.4c68.6,0,83-47,83-86.4
	C423.5,227.7,390.9,193.1,340.5,193.1 M346.9,341.5h-20.7v-122H340c34.1,0,54.5,23.1,54.5,61.8C394.5,322.8,366.7,341.5,346.9,341.5
	 M450,367.6c-4,0-7.2-3.2-7.2-7.2V200.3c0-4,3.2-7.2,7.2-7.2h15.9c4,0,7.2,3.2,7.2,7.2v160.1c0,4-3.2,7.2-7.2,7.2H450z M127.7,212.1
	c0,4-3.2,7.2-7.2,7.2H39.6v45.3h69.4c4,0,7.2,3.2,7.2,7.2v11.7c0,4-3.2,7.2-7.2,7.2H39.6v49.9h80.6c4,0,7.2,3.2,7.2,7.2v12.5
	c0,4-3.2,7.2-7.2,7.2h-105c-4,0-7.2-3.2-7.2-7.2V200.3c0-4,3.2-7.2,7.2-7.2h105.3c4,0,7.2,3.2,7.2,7.2V212.1z M-126.9,200.3
	c0-4,3.2-7.2,7.2-7.2H-15c4,0,7.2,3.2,7.2,7.2v11.6c0,4-3.2,7.2-7.2,7.2l-82.1,0v45.1h55.4c4,0,7.2,3.2,7.2,7.2v12.6
	c0,4-3.2,7.2-7.2,7.2h-55.4v69.1c0,4-3.2,7.2-7.2,7.2h-15.4c-4,0-7.2-3.2-7.2-7.2V200.3z M178.4,250.3v110.1c0,4-3.2,7.2-7.2,7.2
	h-15.9c-4,0-7.2-3.2-7.2-7.2V200.3c0-4,3.2-7.2,7.2-7.2h15.8c5.2,0,7.9,0.8,10,4.7l61.4,111V200.3c0-4,3.2-7.2,7.2-7.2h15.7
	c4,0,7.2,3.2,7.2,7.2v160.1c0,4-3.2,7.2-7.2,7.2h-15.2c-5.2,0-7.9-0.8-10-4.7L178.4,250.3z"/>
</svg>
